<mxfile host="app.diagrams.net" agent="Mozilla/5.0 (Windows NT 10.0; Win64; x64) AppleWebKit/537.36 (KHTML, like Gecko) Chrome/139.0.0.0 Safari/537.36" version="28.1.2">
  <diagram name="PÃ¡gina-1" id="rnqqn5lff84rKcxnqakt">
    <mxGraphModel dx="2037" dy="2288" grid="1" gridSize="10" guides="1" tooltips="1" connect="1" arrows="1" fold="1" page="1" pageScale="1" pageWidth="827" pageHeight="1169" math="0" shadow="0">
      <root>
        <mxCell id="0" />
        <mxCell id="1" parent="0" />
        <mxCell id="goGy_q4gnp1cnYEOYkkZ-4" value="Patrimonio" style="swimlane;fontStyle=0;childLayout=stackLayout;horizontal=1;startSize=26;horizontalStack=0;resizeParent=1;resizeParentMax=0;resizeLast=0;collapsible=1;marginBottom=0;align=center;fontSize=14;" vertex="1" parent="1">
          <mxGeometry x="80" y="-510" width="160" height="206" as="geometry" />
        </mxCell>
        <mxCell id="goGy_q4gnp1cnYEOYkkZ-5" value="id: uuid (pk)" style="text;strokeColor=none;fillColor=none;spacingLeft=4;spacingRight=4;overflow=hidden;rotatable=0;points=[[0,0.5],[1,0.5]];portConstraint=eastwest;fontSize=12;whiteSpace=wrap;html=1;" vertex="1" parent="goGy_q4gnp1cnYEOYkkZ-4">
          <mxGeometry y="26" width="160" height="30" as="geometry" />
        </mxCell>
        <mxCell id="goGy_q4gnp1cnYEOYkkZ-6" value="nome: varchar(100)" style="text;strokeColor=none;fillColor=none;spacingLeft=4;spacingRight=4;overflow=hidden;rotatable=0;points=[[0,0.5],[1,0.5]];portConstraint=eastwest;fontSize=12;whiteSpace=wrap;html=1;" vertex="1" parent="goGy_q4gnp1cnYEOYkkZ-4">
          <mxGeometry y="56" width="160" height="30" as="geometry" />
        </mxCell>
        <mxCell id="goGy_q4gnp1cnYEOYkkZ-7" value="descricao: varchar(500)" style="text;strokeColor=none;fillColor=none;spacingLeft=4;spacingRight=4;overflow=hidden;rotatable=0;points=[[0,0.5],[1,0.5]];portConstraint=eastwest;fontSize=12;whiteSpace=wrap;html=1;" vertex="1" parent="goGy_q4gnp1cnYEOYkkZ-4">
          <mxGeometry y="86" width="160" height="30" as="geometry" />
        </mxCell>
        <mxCell id="goGy_q4gnp1cnYEOYkkZ-8" value="preco_estimado: double" style="text;strokeColor=none;fillColor=none;spacingLeft=4;spacingRight=4;overflow=hidden;rotatable=0;points=[[0,0.5],[1,0.5]];portConstraint=eastwest;fontSize=12;whiteSpace=wrap;html=1;" vertex="1" parent="goGy_q4gnp1cnYEOYkkZ-4">
          <mxGeometry y="116" width="160" height="30" as="geometry" />
        </mxCell>
        <mxCell id="goGy_q4gnp1cnYEOYkkZ-55" value="tipo_controle: varchar(50)" style="text;strokeColor=none;fillColor=none;spacingLeft=4;spacingRight=4;overflow=hidden;rotatable=0;points=[[0,0.5],[1,0.5]];portConstraint=eastwest;fontSize=12;whiteSpace=wrap;html=1;" vertex="1" parent="goGy_q4gnp1cnYEOYkkZ-4">
          <mxGeometry y="146" width="160" height="30" as="geometry" />
        </mxCell>
        <mxCell id="goGy_q4gnp1cnYEOYkkZ-9" value="id_categoria: uuid&amp;nbsp;(fk)" style="text;strokeColor=none;fillColor=none;spacingLeft=4;spacingRight=4;overflow=hidden;rotatable=0;points=[[0,0.5],[1,0.5]];portConstraint=eastwest;fontSize=12;whiteSpace=wrap;html=1;" vertex="1" parent="goGy_q4gnp1cnYEOYkkZ-4">
          <mxGeometry y="176" width="160" height="30" as="geometry" />
        </mxCell>
        <mxCell id="goGy_q4gnp1cnYEOYkkZ-10" value="Categoria" style="swimlane;fontStyle=0;childLayout=stackLayout;horizontal=1;startSize=26;horizontalStack=0;resizeParent=1;resizeParentMax=0;resizeLast=0;collapsible=1;marginBottom=0;align=center;fontSize=14;" vertex="1" parent="1">
          <mxGeometry x="310" y="-465" width="160" height="116" as="geometry" />
        </mxCell>
        <mxCell id="goGy_q4gnp1cnYEOYkkZ-11" value="id: uuid&amp;nbsp;(pk)" style="text;strokeColor=none;fillColor=none;spacingLeft=4;spacingRight=4;overflow=hidden;rotatable=0;points=[[0,0.5],[1,0.5]];portConstraint=eastwest;fontSize=12;whiteSpace=wrap;html=1;" vertex="1" parent="goGy_q4gnp1cnYEOYkkZ-10">
          <mxGeometry y="26" width="160" height="30" as="geometry" />
        </mxCell>
        <mxCell id="goGy_q4gnp1cnYEOYkkZ-12" value="nome: varchar(100)" style="text;strokeColor=none;fillColor=none;spacingLeft=4;spacingRight=4;overflow=hidden;rotatable=0;points=[[0,0.5],[1,0.5]];portConstraint=eastwest;fontSize=12;whiteSpace=wrap;html=1;" vertex="1" parent="goGy_q4gnp1cnYEOYkkZ-10">
          <mxGeometry y="56" width="160" height="30" as="geometry" />
        </mxCell>
        <mxCell id="goGy_q4gnp1cnYEOYkkZ-13" value="id_categoria_mae: uuid&amp;nbsp;(fk)" style="text;strokeColor=none;fillColor=none;spacingLeft=4;spacingRight=4;overflow=hidden;rotatable=0;points=[[0,0.5],[1,0.5]];portConstraint=eastwest;fontSize=12;whiteSpace=wrap;html=1;" vertex="1" parent="goGy_q4gnp1cnYEOYkkZ-10">
          <mxGeometry y="86" width="160" height="30" as="geometry" />
        </mxCell>
        <mxCell id="goGy_q4gnp1cnYEOYkkZ-14" value="" style="edgeStyle=orthogonalEdgeStyle;fontSize=12;html=1;endArrow=ERzeroToMany;startArrow=ERmandOne;rounded=0;" edge="1" parent="1" source="goGy_q4gnp1cnYEOYkkZ-10" target="goGy_q4gnp1cnYEOYkkZ-10">
          <mxGeometry width="100" height="100" relative="1" as="geometry">
            <mxPoint x="540" y="-490" as="sourcePoint" />
            <mxPoint x="640" y="-590" as="targetPoint" />
          </mxGeometry>
        </mxCell>
        <mxCell id="goGy_q4gnp1cnYEOYkkZ-15" value="" style="edgeStyle=orthogonalEdgeStyle;fontSize=12;html=1;endArrow=ERzeroToMany;startArrow=ERmandOne;rounded=0;" edge="1" parent="1" source="goGy_q4gnp1cnYEOYkkZ-10" target="goGy_q4gnp1cnYEOYkkZ-4">
          <mxGeometry width="100" height="100" relative="1" as="geometry">
            <mxPoint x="190" y="-300" as="sourcePoint" />
            <mxPoint x="290" y="-400" as="targetPoint" />
          </mxGeometry>
        </mxCell>
        <mxCell id="goGy_q4gnp1cnYEOYkkZ-16" value="ItemPatrimonio" style="swimlane;fontStyle=0;childLayout=stackLayout;horizontal=1;startSize=26;horizontalStack=0;resizeParent=1;resizeParentMax=0;resizeLast=0;collapsible=1;marginBottom=0;align=center;fontSize=14;" vertex="1" parent="1">
          <mxGeometry x="50" y="-770" width="220" height="176" as="geometry" />
        </mxCell>
        <mxCell id="goGy_q4gnp1cnYEOYkkZ-17" value="id: uuid (pk)" style="text;strokeColor=none;fillColor=none;spacingLeft=4;spacingRight=4;overflow=hidden;rotatable=0;points=[[0,0.5],[1,0.5]];portConstraint=eastwest;fontSize=12;whiteSpace=wrap;html=1;" vertex="1" parent="goGy_q4gnp1cnYEOYkkZ-16">
          <mxGeometry y="26" width="220" height="30" as="geometry" />
        </mxCell>
        <mxCell id="goGy_q4gnp1cnYEOYkkZ-18" value="id_patrimonio: uuid (fk)" style="text;strokeColor=none;fillColor=none;spacingLeft=4;spacingRight=4;overflow=hidden;rotatable=0;points=[[0,0.5],[1,0.5]];portConstraint=eastwest;fontSize=12;whiteSpace=wrap;html=1;" vertex="1" parent="goGy_q4gnp1cnYEOYkkZ-16">
          <mxGeometry y="56" width="220" height="30" as="geometry" />
        </mxCell>
        <mxCell id="goGy_q4gnp1cnYEOYkkZ-21" value="condicao_produto: varchar(50)" style="text;strokeColor=none;fillColor=none;spacingLeft=4;spacingRight=4;overflow=hidden;rotatable=0;points=[[0,0.5],[1,0.5]];portConstraint=eastwest;fontSize=12;whiteSpace=wrap;html=1;" vertex="1" parent="goGy_q4gnp1cnYEOYkkZ-16">
          <mxGeometry y="86" width="220" height="30" as="geometry" />
        </mxCell>
        <mxCell id="goGy_q4gnp1cnYEOYkkZ-22" value="condicao_descricao: varchar(500)" style="text;strokeColor=none;fillColor=none;spacingLeft=4;spacingRight=4;overflow=hidden;rotatable=0;points=[[0,0.5],[1,0.5]];portConstraint=eastwest;fontSize=12;whiteSpace=wrap;html=1;" vertex="1" parent="goGy_q4gnp1cnYEOYkkZ-16">
          <mxGeometry y="116" width="220" height="30" as="geometry" />
        </mxCell>
        <mxCell id="goGy_q4gnp1cnYEOYkkZ-20" value="quantidade: int" style="text;strokeColor=none;fillColor=none;spacingLeft=4;spacingRight=4;overflow=hidden;rotatable=0;points=[[0,0.5],[1,0.5]];portConstraint=eastwest;fontSize=12;whiteSpace=wrap;html=1;" vertex="1" parent="goGy_q4gnp1cnYEOYkkZ-16">
          <mxGeometry y="146" width="220" height="30" as="geometry" />
        </mxCell>
        <mxCell id="goGy_q4gnp1cnYEOYkkZ-23" value="" style="edgeStyle=orthogonalEdgeStyle;fontSize=12;html=1;endArrow=ERzeroToMany;startArrow=ERmandOne;rounded=0;" edge="1" parent="1" source="goGy_q4gnp1cnYEOYkkZ-4" target="goGy_q4gnp1cnYEOYkkZ-16">
          <mxGeometry width="100" height="100" relative="1" as="geometry">
            <mxPoint x="320" y="-440" as="sourcePoint" />
            <mxPoint x="270" y="-440" as="targetPoint" />
          </mxGeometry>
        </mxCell>
        <mxCell id="goGy_q4gnp1cnYEOYkkZ-24" value="Emprestimo" style="swimlane;fontStyle=0;childLayout=stackLayout;horizontal=1;startSize=26;horizontalStack=0;resizeParent=1;resizeParentMax=0;resizeLast=0;collapsible=1;marginBottom=0;align=center;fontSize=14;" vertex="1" parent="1">
          <mxGeometry x="70" y="-1044" width="180" height="220" as="geometry" />
        </mxCell>
        <mxCell id="goGy_q4gnp1cnYEOYkkZ-25" value="id: uuid (pk)" style="text;strokeColor=none;fillColor=none;spacingLeft=4;spacingRight=4;overflow=hidden;rotatable=0;points=[[0,0.5],[1,0.5]];portConstraint=eastwest;fontSize=12;whiteSpace=wrap;html=1;" vertex="1" parent="goGy_q4gnp1cnYEOYkkZ-24">
          <mxGeometry y="26" width="180" height="30" as="geometry" />
        </mxCell>
        <mxCell id="goGy_q4gnp1cnYEOYkkZ-26" value="id_usuario: uuid (fk)" style="text;strokeColor=none;fillColor=none;spacingLeft=4;spacingRight=4;overflow=hidden;rotatable=0;points=[[0,0.5],[1,0.5]];portConstraint=eastwest;fontSize=12;whiteSpace=wrap;html=1;" vertex="1" parent="goGy_q4gnp1cnYEOYkkZ-24">
          <mxGeometry y="56" width="180" height="30" as="geometry" />
        </mxCell>
        <mxCell id="goGy_q4gnp1cnYEOYkkZ-27" value="id_usuario_responsavel: uuid (fk)" style="text;strokeColor=none;fillColor=none;spacingLeft=4;spacingRight=4;overflow=hidden;rotatable=0;points=[[0,0.5],[1,0.5]];portConstraint=eastwest;fontSize=12;whiteSpace=wrap;html=1;" vertex="1" parent="goGy_q4gnp1cnYEOYkkZ-24">
          <mxGeometry y="86" width="180" height="44" as="geometry" />
        </mxCell>
        <mxCell id="goGy_q4gnp1cnYEOYkkZ-28" value="aprovado: bool" style="text;strokeColor=none;fillColor=none;spacingLeft=4;spacingRight=4;overflow=hidden;rotatable=0;points=[[0,0.5],[1,0.5]];portConstraint=eastwest;fontSize=12;whiteSpace=wrap;html=1;" vertex="1" parent="goGy_q4gnp1cnYEOYkkZ-24">
          <mxGeometry y="130" width="180" height="30" as="geometry" />
        </mxCell>
        <mxCell id="goGy_q4gnp1cnYEOYkkZ-29" value="data_emprestimo: date" style="text;strokeColor=none;fillColor=none;spacingLeft=4;spacingRight=4;overflow=hidden;rotatable=0;points=[[0,0.5],[1,0.5]];portConstraint=eastwest;fontSize=12;whiteSpace=wrap;html=1;" vertex="1" parent="goGy_q4gnp1cnYEOYkkZ-24">
          <mxGeometry y="160" width="180" height="30" as="geometry" />
        </mxCell>
        <mxCell id="goGy_q4gnp1cnYEOYkkZ-30" value="data_devolucao: date" style="text;strokeColor=none;fillColor=none;spacingLeft=4;spacingRight=4;overflow=hidden;rotatable=0;points=[[0,0.5],[1,0.5]];portConstraint=eastwest;fontSize=12;whiteSpace=wrap;html=1;" vertex="1" parent="goGy_q4gnp1cnYEOYkkZ-24">
          <mxGeometry y="190" width="180" height="30" as="geometry" />
        </mxCell>
        <mxCell id="goGy_q4gnp1cnYEOYkkZ-31" value="" style="edgeStyle=orthogonalEdgeStyle;fontSize=12;html=1;endArrow=ERzeroToMany;startArrow=ERmandOne;rounded=0;" edge="1" parent="1" source="goGy_q4gnp1cnYEOYkkZ-16" target="goGy_q4gnp1cnYEOYkkZ-24">
          <mxGeometry width="100" height="100" relative="1" as="geometry">
            <mxPoint x="200" y="-504" as="sourcePoint" />
            <mxPoint x="200" y="-568" as="targetPoint" />
          </mxGeometry>
        </mxCell>
        <mxCell id="goGy_q4gnp1cnYEOYkkZ-38" value="Usuario" style="swimlane;fontStyle=0;childLayout=stackLayout;horizontal=1;startSize=26;horizontalStack=0;resizeParent=1;resizeParentMax=0;resizeLast=0;collapsible=1;marginBottom=0;align=center;fontSize=14;" vertex="1" parent="1">
          <mxGeometry x="610" y="-1110" width="160" height="206" as="geometry" />
        </mxCell>
        <mxCell id="goGy_q4gnp1cnYEOYkkZ-39" value="id: uuid (pk)" style="text;strokeColor=none;fillColor=none;spacingLeft=4;spacingRight=4;overflow=hidden;rotatable=0;points=[[0,0.5],[1,0.5]];portConstraint=eastwest;fontSize=12;whiteSpace=wrap;html=1;" vertex="1" parent="goGy_q4gnp1cnYEOYkkZ-38">
          <mxGeometry y="26" width="160" height="30" as="geometry" />
        </mxCell>
        <mxCell id="goGy_q4gnp1cnYEOYkkZ-45" value="cargo_id: uuid (fk)" style="text;strokeColor=none;fillColor=none;spacingLeft=4;spacingRight=4;overflow=hidden;rotatable=0;points=[[0,0.5],[1,0.5]];portConstraint=eastwest;fontSize=12;whiteSpace=wrap;html=1;" vertex="1" parent="goGy_q4gnp1cnYEOYkkZ-38">
          <mxGeometry y="56" width="160" height="30" as="geometry" />
        </mxCell>
        <mxCell id="goGy_q4gnp1cnYEOYkkZ-41" value="nome: varchar(50)" style="text;strokeColor=none;fillColor=none;spacingLeft=4;spacingRight=4;overflow=hidden;rotatable=0;points=[[0,0.5],[1,0.5]];portConstraint=eastwest;fontSize=12;whiteSpace=wrap;html=1;" vertex="1" parent="goGy_q4gnp1cnYEOYkkZ-38">
          <mxGeometry y="86" width="160" height="30" as="geometry" />
        </mxCell>
        <mxCell id="goGy_q4gnp1cnYEOYkkZ-42" value="sobrenome: varchar(50)" style="text;strokeColor=none;fillColor=none;spacingLeft=4;spacingRight=4;overflow=hidden;rotatable=0;points=[[0,0.5],[1,0.5]];portConstraint=eastwest;fontSize=12;whiteSpace=wrap;html=1;" vertex="1" parent="goGy_q4gnp1cnYEOYkkZ-38">
          <mxGeometry y="116" width="160" height="30" as="geometry" />
        </mxCell>
        <mxCell id="goGy_q4gnp1cnYEOYkkZ-43" value="email: varchar(500)" style="text;strokeColor=none;fillColor=none;spacingLeft=4;spacingRight=4;overflow=hidden;rotatable=0;points=[[0,0.5],[1,0.5]];portConstraint=eastwest;fontSize=12;whiteSpace=wrap;html=1;" vertex="1" parent="goGy_q4gnp1cnYEOYkkZ-38">
          <mxGeometry y="146" width="160" height="30" as="geometry" />
        </mxCell>
        <mxCell id="goGy_q4gnp1cnYEOYkkZ-44" value="senha: varchar(100)" style="text;strokeColor=none;fillColor=none;spacingLeft=4;spacingRight=4;overflow=hidden;rotatable=0;points=[[0,0.5],[1,0.5]];portConstraint=eastwest;fontSize=12;whiteSpace=wrap;html=1;" vertex="1" parent="goGy_q4gnp1cnYEOYkkZ-38">
          <mxGeometry y="176" width="160" height="30" as="geometry" />
        </mxCell>
        <mxCell id="goGy_q4gnp1cnYEOYkkZ-46" value="ItensEmprestimos" style="swimlane;fontStyle=0;childLayout=stackLayout;horizontal=1;startSize=26;horizontalStack=0;resizeParent=1;resizeParentMax=0;resizeLast=0;collapsible=1;marginBottom=0;align=center;fontSize=14;" vertex="1" parent="1">
          <mxGeometry x="320" y="-999" width="180" height="116" as="geometry" />
        </mxCell>
        <mxCell id="goGy_q4gnp1cnYEOYkkZ-47" value="id_emprestimo: uuid (fk)" style="text;strokeColor=none;fillColor=none;spacingLeft=4;spacingRight=4;overflow=hidden;rotatable=0;points=[[0,0.5],[1,0.5]];portConstraint=eastwest;fontSize=12;whiteSpace=wrap;html=1;" vertex="1" parent="goGy_q4gnp1cnYEOYkkZ-46">
          <mxGeometry y="26" width="180" height="30" as="geometry" />
        </mxCell>
        <mxCell id="goGy_q4gnp1cnYEOYkkZ-48" value="id_item_patrimonio: uuid (fk)" style="text;strokeColor=none;fillColor=none;spacingLeft=4;spacingRight=4;overflow=hidden;rotatable=0;points=[[0,0.5],[1,0.5]];portConstraint=eastwest;fontSize=12;whiteSpace=wrap;html=1;" vertex="1" parent="goGy_q4gnp1cnYEOYkkZ-46">
          <mxGeometry y="56" width="180" height="30" as="geometry" />
        </mxCell>
        <mxCell id="goGy_q4gnp1cnYEOYkkZ-49" value="quantidade: int" style="text;strokeColor=none;fillColor=none;spacingLeft=4;spacingRight=4;overflow=hidden;rotatable=0;points=[[0,0.5],[1,0.5]];portConstraint=eastwest;fontSize=12;whiteSpace=wrap;html=1;" vertex="1" parent="goGy_q4gnp1cnYEOYkkZ-46">
          <mxGeometry y="86" width="180" height="30" as="geometry" />
        </mxCell>
        <mxCell id="goGy_q4gnp1cnYEOYkkZ-50" value="" style="edgeStyle=orthogonalEdgeStyle;fontSize=12;html=1;endArrow=ERzeroToMany;startArrow=ERmandOne;rounded=0;" edge="1" parent="1" source="goGy_q4gnp1cnYEOYkkZ-24" target="goGy_q4gnp1cnYEOYkkZ-46">
          <mxGeometry width="100" height="100" relative="1" as="geometry">
            <mxPoint x="150" y="-697" as="sourcePoint" />
            <mxPoint x="150" y="-790" as="targetPoint" />
          </mxGeometry>
        </mxCell>
        <mxCell id="goGy_q4gnp1cnYEOYkkZ-53" value="" style="edgeStyle=orthogonalEdgeStyle;fontSize=12;html=1;endArrow=ERzeroToMany;startArrow=ERmandOne;rounded=0;" edge="1" parent="1" source="goGy_q4gnp1cnYEOYkkZ-1" target="goGy_q4gnp1cnYEOYkkZ-38">
          <mxGeometry width="100" height="100" relative="1" as="geometry">
            <mxPoint x="1010" y="-1040" as="sourcePoint" />
            <mxPoint x="1020" y="-955" as="targetPoint" />
          </mxGeometry>
        </mxCell>
        <mxCell id="goGy_q4gnp1cnYEOYkkZ-54" value="" style="edgeStyle=orthogonalEdgeStyle;fontSize=12;html=1;endArrow=ERzeroToMany;startArrow=ERmandOne;rounded=0;" edge="1" parent="1" source="goGy_q4gnp1cnYEOYkkZ-38" target="goGy_q4gnp1cnYEOYkkZ-24">
          <mxGeometry width="100" height="100" relative="1" as="geometry">
            <mxPoint x="590" y="-1023" as="sourcePoint" />
            <mxPoint x="500" y="-1140" as="targetPoint" />
            <Array as="points">
              <mxPoint x="690" y="-1150" />
              <mxPoint x="160" y="-1150" />
            </Array>
          </mxGeometry>
        </mxCell>
        <mxCell id="goGy_q4gnp1cnYEOYkkZ-56" value="" style="swimlane;startSize=0;" vertex="1" parent="1">
          <mxGeometry x="30" y="-1070" width="500" height="790" as="geometry" />
        </mxCell>
        <mxCell id="goGy_q4gnp1cnYEOYkkZ-57" value="" style="swimlane;startSize=0;" vertex="1" parent="1">
          <mxGeometry x="580" y="-1130" width="220" height="530" as="geometry" />
        </mxCell>
        <mxCell id="goGy_q4gnp1cnYEOYkkZ-1" value="Cargo" style="swimlane;fontStyle=0;childLayout=stackLayout;horizontal=1;startSize=26;horizontalStack=0;resizeParent=1;resizeParentMax=0;resizeLast=0;collapsible=1;marginBottom=0;align=center;fontSize=14;" vertex="1" parent="goGy_q4gnp1cnYEOYkkZ-57">
          <mxGeometry x="30" y="288" width="160" height="86" as="geometry" />
        </mxCell>
        <mxCell id="goGy_q4gnp1cnYEOYkkZ-2" value="id: uuid (pk)" style="text;strokeColor=none;fillColor=none;spacingLeft=4;spacingRight=4;overflow=hidden;rotatable=0;points=[[0,0.5],[1,0.5]];portConstraint=eastwest;fontSize=12;whiteSpace=wrap;html=1;" vertex="1" parent="goGy_q4gnp1cnYEOYkkZ-1">
          <mxGeometry y="26" width="160" height="30" as="geometry" />
        </mxCell>
        <mxCell id="goGy_q4gnp1cnYEOYkkZ-3" value="nolme: varchar(50)" style="text;strokeColor=none;fillColor=none;spacingLeft=4;spacingRight=4;overflow=hidden;rotatable=0;points=[[0,0.5],[1,0.5]];portConstraint=eastwest;fontSize=12;whiteSpace=wrap;html=1;" vertex="1" parent="goGy_q4gnp1cnYEOYkkZ-1">
          <mxGeometry y="56" width="160" height="30" as="geometry" />
        </mxCell>
        <mxCell id="goGy_q4gnp1cnYEOYkkZ-32" value="Cargo_Permissoes" style="swimlane;fontStyle=0;childLayout=stackLayout;horizontal=1;startSize=26;horizontalStack=0;resizeParent=1;resizeParentMax=0;resizeLast=0;collapsible=1;marginBottom=0;align=center;fontSize=14;" vertex="1" parent="goGy_q4gnp1cnYEOYkkZ-57">
          <mxGeometry x="30" y="428" width="160" height="86" as="geometry" />
        </mxCell>
        <mxCell id="goGy_q4gnp1cnYEOYkkZ-33" value="permissao: varchar(50)" style="text;strokeColor=none;fillColor=none;spacingLeft=4;spacingRight=4;overflow=hidden;rotatable=0;points=[[0,0.5],[1,0.5]];portConstraint=eastwest;fontSize=12;whiteSpace=wrap;html=1;" vertex="1" parent="goGy_q4gnp1cnYEOYkkZ-32">
          <mxGeometry y="26" width="160" height="30" as="geometry" />
        </mxCell>
        <mxCell id="goGy_q4gnp1cnYEOYkkZ-34" value="cargo_id&lt;span style=&quot;background-color: transparent; color: light-dark(rgb(0, 0, 0), rgb(255, 255, 255));&quot;&gt;: uuid (fk)&lt;/span&gt;" style="text;strokeColor=none;fillColor=none;spacingLeft=4;spacingRight=4;overflow=hidden;rotatable=0;points=[[0,0.5],[1,0.5]];portConstraint=eastwest;fontSize=12;whiteSpace=wrap;html=1;" vertex="1" parent="goGy_q4gnp1cnYEOYkkZ-32">
          <mxGeometry y="56" width="160" height="30" as="geometry" />
        </mxCell>
        <mxCell id="goGy_q4gnp1cnYEOYkkZ-52" value="" style="edgeStyle=orthogonalEdgeStyle;fontSize=12;html=1;endArrow=ERzeroToMany;startArrow=ERmandOne;rounded=0;" edge="1" parent="goGy_q4gnp1cnYEOYkkZ-57" source="goGy_q4gnp1cnYEOYkkZ-1" target="goGy_q4gnp1cnYEOYkkZ-32">
          <mxGeometry width="100" height="100" relative="1" as="geometry">
            <mxPoint x="290" y="170" as="sourcePoint" />
            <mxPoint x="290" y="195" as="targetPoint" />
          </mxGeometry>
        </mxCell>
        <mxCell id="goGy_q4gnp1cnYEOYkkZ-60" value="ms_patrimonio" style="text;html=1;align=center;verticalAlign=middle;whiteSpace=wrap;rounded=0;" vertex="1" parent="1">
          <mxGeometry x="180" y="-1110" width="60" height="30" as="geometry" />
        </mxCell>
        <mxCell id="goGy_q4gnp1cnYEOYkkZ-61" value="ms_usuarios" style="text;html=1;align=center;verticalAlign=middle;whiteSpace=wrap;rounded=0;" vertex="1" parent="1">
          <mxGeometry x="720" y="-1160" width="60" height="30" as="geometry" />
        </mxCell>
      </root>
    </mxGraphModel>
  </diagram>
</mxfile>
